<mxfile host="65bd71144e">
    <diagram id="MsojlqAO4IF1850HnQTj" name="Page-1">
        <mxGraphModel dx="2908" dy="1126" grid="1" gridSize="10" guides="1" tooltips="1" connect="1" arrows="1" fold="1" page="1" pageScale="1" pageWidth="850" pageHeight="1100" math="0" shadow="0">
            <root>
                <mxCell id="0"/>
                <mxCell id="1" parent="0"/>
                <mxCell id="8" value="" style="edgeStyle=orthogonalEdgeStyle;html=1;" parent="1" source="2" target="7" edge="1">
                    <mxGeometry relative="1" as="geometry"/>
                </mxCell>
                <object label="not logged in" id="2">
                    <mxCell style="rounded=1;whiteSpace=wrap;html=1;" parent="1" vertex="1">
                        <mxGeometry x="80" y="490" width="120" height="60" as="geometry"/>
                    </mxCell>
                </object>
                <mxCell id="10" value="click to register" style="edgeStyle=orthogonalEdgeStyle;html=1;" parent="1" source="7" target="9" edge="1">
                    <mxGeometry relative="1" as="geometry"/>
                </mxCell>
                <mxCell id="12" value="click to login" style="edgeStyle=orthogonalEdgeStyle;html=1;entryX=0.5;entryY=1;entryDx=0;entryDy=0;exitX=0.5;exitY=1;exitDx=0;exitDy=0;" parent="1" source="7" target="11" edge="1">
                    <mxGeometry relative="1" as="geometry">
                        <mxPoint x="260" y="570" as="sourcePoint"/>
                        <mxPoint x="827.1599999999999" y="585.22" as="targetPoint"/>
                        <Array as="points">
                            <mxPoint x="250" y="600"/>
                            <mxPoint x="830" y="600"/>
                        </Array>
                    </mxGeometry>
                </mxCell>
                <mxCell id="7" value="" style="rhombus;whiteSpace=wrap;html=1;rounded=1;" parent="1" vertex="1">
                    <mxGeometry x="230" y="500" width="40" height="40" as="geometry"/>
                </mxCell>
                <mxCell id="20" value="" style="edgeStyle=orthogonalEdgeStyle;html=1;" parent="1" source="9" target="19" edge="1">
                    <mxGeometry relative="1" as="geometry"/>
                </mxCell>
                <mxCell id="82" value="fail" style="edgeStyle=orthogonalEdgeStyle;html=1;entryX=0.5;entryY=0;entryDx=0;entryDy=0;exitX=0.5;exitY=0;exitDx=0;exitDy=0;" edge="1" parent="1" source="19" target="2">
                    <mxGeometry relative="1" as="geometry">
                        <mxPoint x="130" y="410" as="targetPoint"/>
                        <Array as="points">
                            <mxPoint x="610" y="390"/>
                            <mxPoint x="140" y="390"/>
                        </Array>
                    </mxGeometry>
                </mxCell>
                <mxCell id="9" value="sign up" style="whiteSpace=wrap;html=1;rounded=1;" parent="1" vertex="1">
                    <mxGeometry x="440" y="490" width="120" height="60" as="geometry"/>
                </mxCell>
                <mxCell id="30" value="success" style="edgeStyle=orthogonalEdgeStyle;html=1;entryX=0;entryY=0.5;entryDx=0;entryDy=0;" parent="1" source="11" target="50" edge="1">
                    <mxGeometry relative="1" as="geometry">
                        <mxPoint x="940" y="470" as="targetPoint"/>
                    </mxGeometry>
                </mxCell>
                <mxCell id="88" value="fail" style="edgeStyle=elbowEdgeStyle;elbow=vertical;html=1;" edge="1" parent="1" source="11" target="87">
                    <mxGeometry relative="1" as="geometry"/>
                </mxCell>
                <mxCell id="11" value="log in" style="whiteSpace=wrap;html=1;rounded=1;" parent="1" vertex="1">
                    <mxGeometry x="770" y="490" width="120" height="60" as="geometry"/>
                </mxCell>
                <mxCell id="85" value="success" style="edgeStyle=elbowEdgeStyle;elbow=vertical;html=1;" edge="1" parent="1" source="19" target="84">
                    <mxGeometry relative="1" as="geometry"/>
                </mxCell>
                <mxCell id="19" value="" style="rhombus;whiteSpace=wrap;html=1;rounded=1;" parent="1" vertex="1">
                    <mxGeometry x="590" y="500" width="40" height="40" as="geometry"/>
                </mxCell>
                <mxCell id="45" value="select anyone" style="edgeStyle=orthogonalEdgeStyle;html=1;" parent="1" edge="1">
                    <mxGeometry relative="1" as="geometry">
                        <mxPoint x="1421" y="505" as="sourcePoint"/>
                        <mxPoint x="1530" y="505" as="targetPoint"/>
                    </mxGeometry>
                </mxCell>
                <mxCell id="107" value="quit" style="edgeStyle=elbowEdgeStyle;elbow=vertical;html=1;entryX=1;entryY=1;entryDx=0;entryDy=0;exitX=0.003;exitY=0.873;exitDx=0;exitDy=0;exitPerimeter=0;" edge="1" parent="1" source="43" target="50">
                    <mxGeometry relative="1" as="geometry">
                        <Array as="points"/>
                    </mxGeometry>
                </mxCell>
                <mxCell id="43" value="marching information page" style="rounded=1;whiteSpace=wrap;html=1;" parent="1" vertex="1">
                    <mxGeometry x="1300" y="490" width="120" height="60" as="geometry"/>
                </mxCell>
                <mxCell id="108" value="quit" style="edgeStyle=elbowEdgeStyle;elbow=vertical;html=1;exitX=0;exitY=0.75;exitDx=0;exitDy=0;" edge="1" parent="1" source="44" target="43">
                    <mxGeometry relative="1" as="geometry"/>
                </mxCell>
                <mxCell id="110" value="" style="edgeStyle=elbowEdgeStyle;elbow=vertical;html=1;exitX=0.82;exitY=-0.007;exitDx=0;exitDy=0;exitPerimeter=0;" edge="1" parent="1" source="44">
                    <mxGeometry relative="1" as="geometry">
                        <mxPoint x="1620" y="60" as="targetPoint"/>
                        <Array as="points">
                            <mxPoint x="1630" y="490"/>
                        </Array>
                    </mxGeometry>
                </mxCell>
                <mxCell id="44" value="the man&#39;s page" style="whiteSpace=wrap;html=1;rounded=1;" parent="1" vertex="1">
                    <mxGeometry x="1530" y="490" width="120" height="60" as="geometry"/>
                </mxCell>
                <mxCell id="52" value="click message" style="edgeStyle=orthogonalEdgeStyle;html=1;" parent="1" source="50" target="51" edge="1">
                    <mxGeometry relative="1" as="geometry">
                        <Array as="points">
                            <mxPoint x="1060" y="430"/>
                            <mxPoint x="1060" y="430"/>
                        </Array>
                    </mxGeometry>
                </mxCell>
                <mxCell id="103" value="click match" style="edgeStyle=elbowEdgeStyle;elbow=vertical;html=1;" edge="1" parent="1" source="50">
                    <mxGeometry relative="1" as="geometry">
                        <mxPoint x="1300" y="500" as="targetPoint"/>
                        <Array as="points">
                            <mxPoint x="1240" y="500"/>
                        </Array>
                    </mxGeometry>
                </mxCell>
                <mxCell id="50" value="homepage" style="rounded=1;whiteSpace=wrap;html=1;" parent="1" vertex="1">
                    <mxGeometry x="1040" y="490" width="120" height="60" as="geometry"/>
                </mxCell>
                <mxCell id="99" value="select anyone" style="edgeStyle=elbowEdgeStyle;elbow=vertical;html=1;exitX=0.17;exitY=-0.033;exitDx=0;exitDy=0;exitPerimeter=0;" edge="1" parent="1" source="51" target="98">
                    <mxGeometry relative="1" as="geometry"/>
                </mxCell>
                <mxCell id="51" value="message list" style="whiteSpace=wrap;html=1;rounded=1;" parent="1" vertex="1">
                    <mxGeometry x="1040" y="290" width="120" height="60" as="geometry"/>
                </mxCell>
                <mxCell id="101" value="quit" style="edgeStyle=elbowEdgeStyle;elbow=vertical;html=1;exitX=0.75;exitY=1;exitDx=0;exitDy=0;" edge="1" parent="1" source="53" target="100">
                    <mxGeometry relative="1" as="geometry"/>
                </mxCell>
                <mxCell id="114" value="quit" style="edgeStyle=elbowEdgeStyle;elbow=vertical;html=1;" edge="1" parent="1" source="53" target="113">
                    <mxGeometry relative="1" as="geometry"/>
                </mxCell>
                <mxCell id="53" value="consult page" style="whiteSpace=wrap;html=1;rounded=1;" parent="1" vertex="1">
                    <mxGeometry x="1045" y="50" width="120" height="60" as="geometry"/>
                </mxCell>
                <mxCell id="72" value="click repairing information" style="edgeStyle=orthogonalEdgeStyle;html=1;exitX=0.89;exitY=0.517;exitDx=0;exitDy=0;exitPerimeter=0;entryX=0.75;entryY=0;entryDx=0;entryDy=0;" parent="1" source="63" target="71" edge="1">
                    <mxGeometry relative="1" as="geometry">
                        <mxPoint x="1140" y="515" as="sourcePoint"/>
                        <mxPoint x="1125" y="750" as="targetPoint"/>
                        <Array as="points">
                            <mxPoint x="1135" y="720"/>
                            <mxPoint x="1135" y="720"/>
                        </Array>
                    </mxGeometry>
                </mxCell>
                <mxCell id="63" value="" style="shape=waypoint;sketch=0;size=6;pointerEvents=1;points=[];fillColor=default;resizable=0;rotatable=0;perimeter=centerPerimeter;snapToPoint=1;rounded=1;" parent="1" vertex="1">
                    <mxGeometry x="1125" y="540" width="20" height="20" as="geometry"/>
                </mxCell>
                <mxCell id="74" value="select special info" style="edgeStyle=orthogonalEdgeStyle;html=1;" parent="1" source="71" target="73" edge="1">
                    <mxGeometry relative="1" as="geometry">
                        <Array as="points">
                            <mxPoint x="1130" y="900"/>
                            <mxPoint x="1130" y="900"/>
                        </Array>
                    </mxGeometry>
                </mxCell>
                <mxCell id="79" value="quit" style="edgeStyle=orthogonalEdgeStyle;html=1;exitX=0.155;exitY=-0.04;exitDx=0;exitDy=0;exitPerimeter=0;" parent="1" source="71" edge="1">
                    <mxGeometry x="0.0291" relative="1" as="geometry">
                        <mxPoint x="1060" y="550" as="targetPoint"/>
                        <Array as="points">
                            <mxPoint x="1064" y="745"/>
                            <mxPoint x="1060" y="745"/>
                        </Array>
                        <mxPoint x="1042.477619047619" y="744.68" as="sourcePoint"/>
                        <mxPoint as="offset"/>
                    </mxGeometry>
                </mxCell>
                <mxCell id="71" value="own information page" style="whiteSpace=wrap;html=1;sketch=0;pointerEvents=1;resizable=0;rounded=1;" parent="1" vertex="1">
                    <mxGeometry x="1045" y="740" width="120" height="60" as="geometry"/>
                </mxCell>
                <mxCell id="76" value="quit" style="edgeStyle=orthogonalEdgeStyle;html=1;entryX=0.135;entryY=1;entryDx=0;entryDy=0;entryPerimeter=0;exitX=0.064;exitY=0.152;exitDx=0;exitDy=0;exitPerimeter=0;" parent="1" target="71" edge="1" source="73">
                    <mxGeometry relative="1" as="geometry">
                        <mxPoint x="1371.9228571428573" y="635" as="sourcePoint"/>
                        <mxPoint x="1055" y="645" as="targetPoint"/>
                        <Array as="points">
                            <mxPoint x="1061" y="939"/>
                            <mxPoint x="1061" y="865"/>
                            <mxPoint x="1060" y="865"/>
                            <mxPoint x="1060" y="805"/>
                            <mxPoint x="1061" y="805"/>
                        </Array>
                    </mxGeometry>
                </mxCell>
                <mxCell id="73" value="its page" style="whiteSpace=wrap;html=1;sketch=0;pointerEvents=1;resizable=0;rounded=1;" parent="1" vertex="1">
                    <mxGeometry x="1040" y="930" width="120" height="60" as="geometry"/>
                </mxCell>
                <mxCell id="84" value="" style="shape=waypoint;sketch=0;size=6;pointerEvents=1;points=[];fillColor=default;resizable=0;rotatable=0;perimeter=centerPerimeter;snapToPoint=1;rounded=1;" vertex="1" parent="1">
                    <mxGeometry x="760" y="510" width="20" height="20" as="geometry"/>
                </mxCell>
                <mxCell id="90" value="" style="edgeStyle=elbowEdgeStyle;elbow=vertical;html=1;" edge="1" parent="1" source="87" target="89">
                    <mxGeometry relative="1" as="geometry"/>
                </mxCell>
                <mxCell id="87" value="" style="shape=waypoint;sketch=0;size=6;pointerEvents=1;points=[];fillColor=default;resizable=0;rotatable=0;perimeter=centerPerimeter;snapToPoint=1;rounded=1;" vertex="1" parent="1">
                    <mxGeometry x="820" y="370" width="20" height="20" as="geometry"/>
                </mxCell>
                <mxCell id="92" value="" style="edgeStyle=elbowEdgeStyle;elbow=vertical;html=1;" edge="1" parent="1" source="89" target="91">
                    <mxGeometry relative="1" as="geometry"/>
                </mxCell>
                <mxCell id="89" value="" style="shape=waypoint;sketch=0;size=6;pointerEvents=1;points=[];fillColor=default;resizable=0;rotatable=0;perimeter=centerPerimeter;snapToPoint=1;rounded=1;" vertex="1" parent="1">
                    <mxGeometry x="860" y="370" width="20" height="20" as="geometry"/>
                </mxCell>
                <mxCell id="91" value="" style="shape=waypoint;sketch=0;size=6;pointerEvents=1;points=[];fillColor=default;resizable=0;rotatable=0;perimeter=centerPerimeter;snapToPoint=1;rounded=1;" vertex="1" parent="1">
                    <mxGeometry x="860" y="475" width="20" height="20" as="geometry"/>
                </mxCell>
                <mxCell id="97" value="quit" style="edgeStyle=elbowEdgeStyle;elbow=vertical;html=1;" edge="1" parent="1" source="94" target="96">
                    <mxGeometry relative="1" as="geometry">
                        <Array as="points"/>
                    </mxGeometry>
                </mxCell>
                <mxCell id="94" value="" style="shape=waypoint;sketch=0;size=6;pointerEvents=1;points=[];fillColor=default;resizable=0;rotatable=0;perimeter=centerPerimeter;snapToPoint=1;rounded=1;" vertex="1" parent="1">
                    <mxGeometry x="1125" y="340" width="20" height="20" as="geometry"/>
                </mxCell>
                <mxCell id="96" value="" style="shape=waypoint;sketch=0;size=6;pointerEvents=1;points=[];fillColor=default;resizable=0;rotatable=0;perimeter=centerPerimeter;snapToPoint=1;rounded=1;" vertex="1" parent="1">
                    <mxGeometry x="1125" y="480" width="20" height="20" as="geometry"/>
                </mxCell>
                <mxCell id="98" value="" style="shape=waypoint;sketch=0;size=6;pointerEvents=1;points=[];fillColor=default;resizable=0;rotatable=0;perimeter=centerPerimeter;snapToPoint=1;rounded=1;" vertex="1" parent="1">
                    <mxGeometry x="1050" y="100" width="20" height="20" as="geometry"/>
                </mxCell>
                <mxCell id="100" value="" style="shape=waypoint;sketch=0;size=6;pointerEvents=1;points=[];fillColor=default;resizable=0;rotatable=0;perimeter=centerPerimeter;snapToPoint=1;rounded=1;" vertex="1" parent="1">
                    <mxGeometry x="1125" y="270" width="20" height="20" as="geometry"/>
                </mxCell>
                <mxCell id="112" value="select anyone" style="edgeStyle=elbowEdgeStyle;elbow=vertical;html=1;" edge="1" parent="1" source="109" target="111">
                    <mxGeometry relative="1" as="geometry"/>
                </mxCell>
                <mxCell id="109" value="" style="shape=waypoint;sketch=0;size=6;pointerEvents=1;points=[];fillColor=default;resizable=0;rotatable=0;perimeter=centerPerimeter;snapToPoint=1;rounded=1;" vertex="1" parent="1">
                    <mxGeometry x="1610" y="50" width="20" height="20" as="geometry"/>
                </mxCell>
                <mxCell id="111" value="" style="shape=waypoint;sketch=0;size=6;pointerEvents=1;points=[];fillColor=default;resizable=0;rotatable=0;perimeter=centerPerimeter;snapToPoint=1;rounded=1;" vertex="1" parent="1">
                    <mxGeometry x="1160" y="50" width="20" height="20" as="geometry"/>
                </mxCell>
                <mxCell id="116" value="" style="edgeStyle=elbowEdgeStyle;elbow=vertical;html=1;" edge="1" parent="1" source="113" target="115">
                    <mxGeometry relative="1" as="geometry"/>
                </mxCell>
                <mxCell id="113" value="" style="shape=waypoint;sketch=0;size=6;pointerEvents=1;points=[];fillColor=default;resizable=0;rotatable=0;perimeter=centerPerimeter;snapToPoint=1;rounded=1;" vertex="1" parent="1">
                    <mxGeometry x="1540" y="90" width="20" height="20" as="geometry"/>
                </mxCell>
                <mxCell id="115" value="" style="shape=waypoint;sketch=0;size=6;pointerEvents=1;points=[];fillColor=default;resizable=0;rotatable=0;perimeter=centerPerimeter;snapToPoint=1;rounded=1;" vertex="1" parent="1">
                    <mxGeometry x="1540" y="480" width="20" height="20" as="geometry"/>
                </mxCell>
            </root>
        </mxGraphModel>
    </diagram>
</mxfile>